<svg width="498" height="507" viewBox="0 0 498 507" fill="none" xmlns="http://www.w3.org/2000/svg">
<path d="M336.369 122.831C337.213 123.23 338.048 123.641 338.869 124.064C347.228 128.37 359.565 131.65 372.369 139.688C375.599 118.728 386.924 75.2693 407.521 57.0644C412.721 92.231 420.295 166.964 408.994 184.564C412.246 191.874 415.205 199.267 417.945 206.564C438.522 200.564 419.369 83.5644 420.369 57.0644C420.469 54.404 420.398 52.0832 420.185 50.0643C418.87 37.5767 412.171 36.6389 407.521 38.3184C406.933 38.5311 406.377 38.7858 405.869 39.0644C391.069 55.0644 353.369 101.576 336.369 122.831Z" fill="#A95226"/>
<path d="M372.369 139.688C384.84 147.518 397.754 159.861 407.869 182.064C408.248 182.896 408.623 183.73 408.994 184.564C420.295 166.964 412.721 92.231 407.521 57.0644C386.924 75.2693 375.599 118.728 372.369 139.688Z" fill="#7D3D23"/>
<path d="M407.521 11.5643C403.244 19.5643 405.739 32.7337 407.521 38.3184C412.171 36.6389 418.87 37.5767 420.185 50.0643C436.438 43.6643 442.746 31.3977 443.869 26.0643C437.469 32.4643 431.536 33.3977 429.369 33.0643C437.769 27.4643 438.536 17.731 437.869 13.5643C434.669 22.3643 424.869 28.231 420.369 30.0643C423.169 25.2643 424.202 8.39766 424.369 0.564331C420.369 14.1643 415.036 24.5643 412.869 28.0643C409.669 28.0643 407.971 17.0643 407.521 11.5643Z" fill="#542913"/>
<path d="M70.3689 238.064C61.5689 270.864 47.7022 287.398 41.8689 291.564C103.069 326.764 341.036 302.898 452.369 286.564C440.075 277.959 431.812 243.494 417.945 206.564C415.205 199.267 412.246 191.874 408.994 184.564C408.623 183.73 408.248 182.896 407.869 182.064C397.754 159.861 384.84 147.518 372.369 139.688C359.565 131.65 347.228 128.37 338.869 124.064C338.048 123.641 337.213 123.23 336.369 122.831C323.638 116.814 308.621 113.502 302.369 112.564C286.285 101.995 197.131 102.829 155.637 122.831C151.984 124.592 148.701 126.501 145.869 128.564C138.047 134.263 130.5 140.835 123.373 148.064C111.389 160.22 100.591 174.232 91.6698 189.064C88.2232 194.795 85.0566 200.648 82.21 206.564C77.1994 216.978 73.18 227.587 70.3689 238.064Z" fill="#A95226"/>
<path d="M82.1502 60.5643C82.21 56.4837 82.21 53.7355 82.21 53.0643C82.21 50.3087 86.1409 39.9593 93.3689 44.1045C99.7689 28.1365 89.7022 16.4244 83.8689 12.5643C85.2438 15.3643 84.4418 24.0643 83.8689 28.0643C79.4689 18.8643 74.7022 16.8977 72.8689 17.0643C78.8689 21.4643 79.7022 31.5643 79.3689 36.0643C72.5689 25.6643 62.2022 23.0643 57.8689 23.0643C66.2689 28.2643 71.3689 36.231 72.8689 39.5643C65.4438 35.9643 58.1084 35.731 55.3689 36.0643C64.1689 40.4643 76.8898 54.231 82.1502 60.5643Z" fill="#552313"/>
<path d="M72.8689 164.564C72.0689 178.164 78.763 198.231 82.21 206.564C85.0566 200.648 88.2232 194.795 91.6698 189.064C85.4708 190.064 82.21 133.564 85.3689 117.564C87.896 104.764 89.0885 74.231 89.3689 60.5643C121.769 95.3643 125.539 133.398 123.373 148.064C130.5 140.835 138.047 134.263 145.869 128.564C148.701 126.501 151.984 124.592 155.637 122.831C150.905 96.5981 103.869 53.0643 95.3689 45.5643C94.6766 44.9535 94.0098 44.472 93.3689 44.1045C86.1409 39.9593 82.21 50.3087 82.21 53.0643C82.21 53.7355 82.21 56.4837 82.1502 60.5643C81.9427 74.7239 81.0151 104.927 76.8689 120.064C71.5277 139.564 73.8689 147.564 72.8689 164.564Z" fill="#A95226"/>
<path d="M123.373 148.064C125.539 133.398 121.769 95.3643 89.3689 60.5643C89.0885 74.231 87.896 104.764 85.3689 117.564C82.21 133.564 85.4708 190.064 91.6698 189.064C100.591 174.232 111.389 160.22 123.373 148.064Z" fill="#7C3D23"/>
<path d="M336.369 122.831C323.638 116.814 308.621 113.502 302.369 112.564C286.285 101.995 197.131 102.829 155.637 122.831M408.994 184.564C408.623 183.73 408.248 182.896 407.869 182.064C397.754 159.861 384.84 147.518 372.369 139.688C359.565 131.65 347.228 128.37 338.869 124.064C338.048 123.641 337.213 123.23 336.369 122.831M336.369 122.831C353.369 101.576 391.069 55.0644 405.869 39.0644C406.377 38.7858 406.933 38.5311 407.521 38.3184M417.945 206.564C431.812 243.494 440.075 277.959 452.369 286.564C341.036 302.898 103.069 326.764 41.8689 291.564C47.7022 287.398 61.5689 270.864 70.3689 238.064C73.18 227.587 77.1994 216.978 82.21 206.564M417.945 206.564C438.522 200.564 419.369 83.5644 420.369 57.0644C420.469 54.404 420.398 52.0832 420.185 50.0643M417.945 206.564C415.205 199.267 412.246 191.874 408.994 184.564M372.369 139.688C375.599 118.728 386.924 75.2693 407.521 57.0644M412.869 53.0643C411.021 54.2036 409.239 55.5461 407.521 57.0644M407.521 57.0644C412.721 92.231 420.295 166.964 408.994 184.564M407.521 38.3184C405.739 32.7337 403.244 19.5643 407.521 11.5643C407.971 17.0643 409.669 28.0643 412.869 28.0643C415.036 24.5643 420.369 14.1643 424.369 0.564331C424.202 8.39766 423.169 25.2643 420.369 30.0643C424.869 28.231 434.669 22.3643 437.869 13.5643C438.536 17.731 437.769 27.4643 429.369 33.0643C431.536 33.3977 437.469 32.4643 443.869 26.0643C442.746 31.3977 436.438 43.6643 420.185 50.0643M407.521 38.3184C412.171 36.6389 418.87 37.5767 420.185 50.0643M93.3689 44.1045C86.1409 39.9593 82.21 50.3087 82.21 53.0643C82.21 53.7355 82.21 56.4837 82.1502 60.5643C81.9427 74.7239 81.0151 104.927 76.8689 120.064C71.5277 139.564 73.8689 147.564 72.8689 164.564C72.0689 178.164 78.763 198.231 82.21 206.564M82.21 206.564C85.0566 200.648 88.2232 194.795 91.6698 189.064M155.637 122.831C151.984 124.592 148.701 126.501 145.869 128.564C138.047 134.263 130.5 140.835 123.373 148.064M155.637 122.831C150.905 96.5981 103.869 53.0643 95.3689 45.5643C94.6766 44.9535 94.0098 44.472 93.3689 44.1045M123.373 148.064C125.539 133.398 121.769 95.3643 89.3689 60.5643C89.0885 74.231 87.896 104.764 85.3689 117.564C82.21 133.564 85.4708 190.064 91.6698 189.064M123.373 148.064C111.389 160.22 100.591 174.232 91.6698 189.064M82.1502 60.5643C76.8898 54.231 64.1689 40.4643 55.3689 36.0643C58.1084 35.731 65.4438 35.9643 72.8689 39.5643C71.3689 36.231 66.2689 28.2643 57.8689 23.0643C62.2022 23.0643 72.5689 25.6643 79.3689 36.0643C79.7022 31.5643 78.8689 21.4643 72.8689 17.0643C74.7022 16.8977 79.4689 18.8643 83.8689 28.0643C84.4418 24.0643 85.2438 15.3643 83.8689 12.5643C89.7022 16.4244 99.7689 28.1365 93.3689 44.1045" stroke="black" stroke-width="4" stroke-linecap="round"/>
<path d="M196.369 411.564C207.869 437.064 235.869 436.564 251.869 436.564C267.869 436.564 294.869 406.564 300.869 393.064C305.745 382.093 311.942 354.939 329.391 336.564C301.809 356.164 257.55 349.064 238.869 343.064C200.069 361.064 164.702 344.247 151.869 333.588C165.742 356.007 188.244 393.548 196.369 411.564Z" fill="#2F100E"/>
<path fill-rule="evenodd" clip-rule="evenodd" d="M172.369 496.564C189.169 506.164 233.702 505.231 253.869 503.564C308.869 507.065 352.369 477.064 368.869 473.064C385.369 469.064 448.869 424.564 457.869 412.564C465.069 402.964 475.202 393.231 479.369 389.564C494.969 382.764 489.536 357.064 484.869 345.064C488.869 345.398 496.569 343.764 495.369 334.564C494.169 325.364 476.869 311.731 468.369 306.064C472.369 292.064 442.869 284.064 440.369 282.064C437.869 280.064 377.369 279.564 348.369 282.064C319.369 284.564 293.369 260.564 280.369 251.564C275.348 248.089 268.613 246.104 261.257 245.064C280.767 250.264 282.127 263.564 280.369 269.564C278.202 272.731 271.369 280.064 261.369 284.064C248.869 289.064 242.369 292.564 229.369 287.564C216.369 282.564 207.869 283.564 202.369 269.564C197.969 258.364 210.536 249.64 217.369 246.677C204.146 250.524 192.614 260.044 179.369 269.564C166.569 278.764 159.702 281.731 157.869 282.064C104.869 290.064 81.369 272.564 52.8689 288.564C24.3688 304.564 33.869 301.064 27.8689 311.564C21.8688 322.064 20.3689 323.064 11.8689 328.564C3.3689 334.064 -0.6311 344.064 3.8689 346.564C7.4689 348.564 13.0356 348.731 15.369 348.564C9.36898 352.564 9.86898 382.064 15.369 384.064C20.869 386.064 36.369 398.564 33.869 405.564C31.369 412.564 66.869 444.064 81.369 449.564C95.869 455.064 151.369 484.564 172.369 496.564ZM251.869 436.564C235.869 436.564 207.869 437.064 196.369 411.564C188.244 393.548 165.742 356.007 151.869 333.588C164.702 344.247 200.069 361.064 238.869 343.064C257.55 349.064 301.809 356.164 329.391 336.564C311.942 354.939 305.745 382.093 300.869 393.064C294.869 406.564 267.869 436.564 251.869 436.564Z" fill="#CDA57F"/>
<path d="M225.869 245.064C222.942 245.323 220.119 245.877 217.369 246.677C210.536 249.64 197.969 258.364 202.369 269.564C207.869 283.564 216.369 282.564 229.369 287.564C242.369 292.564 248.869 289.064 261.369 284.064C271.369 280.064 278.202 272.731 280.369 269.564C282.127 263.564 280.767 250.264 261.257 245.064C249.564 243.411 236.304 244.144 225.869 245.064Z" fill="#552716"/>
<path d="M217.369 246.677C204.146 250.524 192.614 260.044 179.369 269.564C166.569 278.764 159.702 281.731 157.869 282.064C104.869 290.064 81.369 272.564 52.8689 288.564C24.3688 304.564 33.869 301.064 27.8689 311.564C21.8688 322.064 20.3689 323.064 11.8689 328.564C3.3689 334.064 -0.6311 344.064 3.8689 346.564C7.4689 348.564 13.0356 348.731 15.369 348.564C9.36898 352.564 9.86898 382.064 15.369 384.064C20.869 386.064 36.369 398.564 33.869 405.564C31.369 412.564 66.869 444.064 81.369 449.564C95.869 455.064 151.369 484.564 172.369 496.564C189.169 506.164 233.702 505.231 253.869 503.564C308.869 507.065 352.369 477.064 368.869 473.064C385.369 469.064 448.869 424.564 457.869 412.564C465.069 402.964 475.202 393.231 479.369 389.564C494.969 382.764 489.536 357.064 484.869 345.064C488.869 345.398 496.569 343.764 495.369 334.564C494.169 325.364 476.869 311.731 468.369 306.064C472.369 292.064 442.869 284.064 440.369 282.064C437.869 280.064 377.369 279.564 348.369 282.064C319.369 284.564 293.369 260.564 280.369 251.564C275.348 248.089 268.613 246.104 261.257 245.064M217.369 246.677C220.119 245.877 222.942 245.323 225.869 245.064C236.304 244.144 249.564 243.411 261.257 245.064M217.369 246.677C210.536 249.64 197.969 258.364 202.369 269.564C207.869 283.564 216.369 282.564 229.369 287.564C242.369 292.564 248.869 289.064 261.369 284.064C271.369 280.064 278.202 272.731 280.369 269.564C282.127 263.564 280.767 250.264 261.257 245.064M329.391 336.564C311.942 354.939 305.745 382.093 300.869 393.064C294.869 406.564 267.869 436.564 251.869 436.564C235.869 436.564 207.869 437.064 196.369 411.564C188.244 393.548 165.742 356.007 151.869 333.588C150.033 330.622 148.349 327.921 146.869 325.564M343.369 325.564C338.031 328.561 333.412 332.33 329.391 336.564M151.869 333.588C164.702 344.247 200.069 361.064 238.869 343.064M238.869 343.064C257.55 349.064 301.809 356.164 329.391 336.564M238.869 343.064C238.369 339.064 238.269 326.364 241.869 307.564" stroke="black" stroke-width="4" stroke-linecap="round"/>
<path d="M242.869 388.064C245.036 390.731 251.369 395.064 259.369 391.064C269.369 386.064 274.869 364.064 275.369 352.564C255.769 354.164 244.202 347.898 240.869 344.564C242.469 350.564 242.869 376.064 242.869 388.064Z" fill="#E8E9E8"/>
<path d="M208.869 352.564C209.702 358.064 211.669 369.464 212.869 371.064C214.369 373.064 218.369 389.064 228.869 391.064C237.269 392.664 241.702 389.731 242.869 388.064C242.869 376.064 242.469 350.564 240.869 344.564C227.669 351.764 214.036 352.898 208.869 352.564Z" fill="#E8E9E8"/>
<path d="M240.869 344.564C244.202 347.898 255.769 354.164 275.369 352.564C274.869 364.064 269.369 386.064 259.369 391.064C251.369 395.064 245.036 390.731 242.869 388.064C241.702 389.731 237.269 392.664 228.869 391.064C218.369 389.064 214.369 373.064 212.869 371.064C211.669 369.464 209.702 358.064 208.869 352.564C214.036 352.898 227.669 351.764 240.869 344.564ZM242.869 388.064C242.869 376.064 242.469 350.564 240.869 344.564" stroke="black" stroke-width="4" stroke-linecap="round"/>
<path d="M306.369 269.064C299.535 254.398 287.369 219.064 293.369 195.064C300.869 165.064 299.369 166.064 308.869 155.564C318.369 145.064 343.869 145.564 351.369 150.564C358.869 155.564 389.869 175.064 395.369 201.064C400.869 227.064 419.869 259.064 395.369 282.064L346.869 284.564C337.702 282.898 316.769 277.464 306.369 269.064Z" fill="#EAE1D1" stroke="black" stroke-width="4" stroke-linecap="round"/>
<path d="M189.086 268.502C195.92 253.835 208.086 218.502 202.086 194.502C194.586 164.502 196.086 165.502 186.586 155.002C177.086 144.502 151.586 145.002 144.086 150.002C136.586 155.002 105.586 174.502 100.086 200.502C94.5862 226.502 75.5862 258.502 100.086 281.502L148.586 284.002C157.753 282.335 178.686 276.902 189.086 268.502Z" fill="#EAE1D1" stroke="black" stroke-width="4" stroke-linecap="round"/>
<circle cx="343.869" cy="235.564" r="41" fill="#E7EBEC" stroke="black" stroke-width="2"/>
<circle cx="336.369" cy="238.064" r="26.5" fill="#3567A2" stroke="black" stroke-width="2"/>
<circle cx="331.369" cy="241.064" r="15.5" fill="#27110F" stroke="#27110F" stroke-width="2"/>
<circle cx="330.869" cy="232.564" r="6" fill="white" stroke="#27110F" stroke-width="2"/>
<circle cx="42" cy="42" r="41" transform="matrix(-1 0 0 1 194.869 186.564)" fill="#E7EBEC" stroke="black" stroke-width="2"/>
<circle cx="27.5" cy="27.5" r="26.5" transform="matrix(-1 0 0 1 187.869 203.564)" fill="#3567A2" stroke="black" stroke-width="2"/>
<circle cx="16.5" cy="16.5" r="15.5" transform="matrix(-1 0 0 1 181.869 217.564)" fill="#27110F" stroke="#27110F" stroke-width="2"/>
<circle cx="7" cy="7" r="6" transform="matrix(-1 0 0 1 172.869 218.564)" fill="white" stroke="#27110F" stroke-width="2"/>
</svg>
