<svg width="202" height="174" viewBox="0 0 202 174" fill="none" xmlns="http://www.w3.org/2000/svg">
<path d="M190.037 9.82592C195.37 20.3259 204.137 45.3259 196.537 61.3259C187.037 81.3259 175.037 81.3259 163.037 112.826C151.037 144.326 125.037 171.326 102.037 164.826C100.37 163.993 96.3367 161.326 93.5367 157.326C93.2034 160.493 89.2367 167.526 76.0367 170.326C59.5367 173.826 41.5367 163.326 40.5367 159.326C34.2034 160.826 19.8367 161.826 13.0367 153.826C4.53672 143.826 -4.46328 134.326 8.53672 106.326C18.9367 83.9259 47.2033 74.6593 60.0366 72.8259C77.5366 68.3259 113.837 53.0259 119.037 27.8259C118.703 22.8259 118.837 12.2259 122.037 9.82592C126.037 6.82592 175.537 -6.17408 190.037 9.82592Z" fill="#CDA47C"/>
<path d="M109.537 94.8259C77.0366 129.826 92.0366 157.326 93.5367 157.326C96.3367 161.326 100.37 163.993 102.037 164.826C125.037 171.326 151.037 144.326 163.037 112.826C175.037 81.3259 187.037 81.3259 196.537 61.3259C204.137 45.3259 195.37 20.3259 190.037 9.82592C175.537 -6.17408 126.037 6.82592 122.037 9.82592C118.837 12.2259 118.703 22.8259 119.037 27.8259C113.837 53.0259 77.5366 68.3259 60.0366 72.8259C47.2033 74.6593 18.9367 83.9259 8.53672 106.326C-4.46328 134.326 4.53672 143.826 13.0367 153.826C19.8367 161.826 34.2034 160.826 40.5367 159.326M68.0366 76.8259C24.0366 107.226 31.37 144.493 40.5367 159.326C41.5367 163.326 59.5367 173.826 76.0367 170.326C89.2367 167.526 93.2034 160.493 93.5367 157.326" stroke="black" stroke-width="4"/>
</svg>
