<svg width="178" height="106" viewBox="0 0 178 106" fill="none" xmlns="http://www.w3.org/2000/svg">
<path d="M150.098 37.5C137.098 34.8333 108.298 27.5 97.0983 19.5C83.0983 9.5 53.5983 2 46.0983 2C38.5983 2 24.0983 7.5 32.0983 22.5C26.9316 21.1667 15.2982 19.7 10.0982 24.5C3.59819 30.5 -0.401809 38.5 3.59819 43C7.59819 47.5 8.59837 54.5 32.0983 59.5C28.4316 60 20.6981 61.4 19.0981 63C17.0981 65 5.09814 74.5 12.0981 84C19.0981 93.5 30.0981 93 37.0981 93C42.6981 93 57.0981 91.6667 63.5981 91C68.4315 90.5 79.1981 91 83.5981 97C89.0981 104.5 108.098 102.5 114.598 103.5C121.098 104.5 142.098 99 150.598 102.5C159.098 106 178.098 64.5 175.098 59.5C172.098 54.5 173.098 44.5 150.098 37.5Z" fill="#CBA680"/>
<path d="M32.0983 22.5C24.0983 7.5 38.5983 2 46.0983 2C53.5983 2 83.0983 9.5 97.0983 19.5C108.298 27.5 137.098 34.8333 150.098 37.5C173.098 44.5 172.098 54.5 175.098 59.5C178.098 64.5 159.098 106 150.598 102.5C142.098 99 121.098 104.5 114.598 103.5C108.098 102.5 89.0981 104.5 83.5981 97C79.1981 91 68.4315 90.5 63.5981 91C57.0981 91.6667 42.6981 93 37.0981 93C30.0981 93 19.0981 93.5 12.0981 84C5.09814 74.5 17.0981 65 19.0981 63C20.6981 61.4 28.4316 60 32.0983 59.5M32.0983 22.5C26.9316 21.1667 15.2982 19.7 10.0982 24.5C3.59819 30.5 -0.401809 38.5 3.59819 43C7.59819 47.5 8.59837 54.5 32.0983 59.5M32.0983 22.5C34.2649 25.6667 41.5981 33.1 53.5981 37.5C68.5981 43 79.5981 47 84.5981 55M32.0983 59.5C37.4316 59.1667 50.5981 60.4 60.5981 68M109.098 55C109.931 56 110.698 59 107.098 63C102.598 68 97.5981 76 106.098 83.5C112.898 89.5 120.931 85 124.098 82C127.265 78 135.098 70.6 141.098 73" stroke="black" stroke-width="4" stroke-linecap="round"/>
</svg>
