<svg width="191" height="134" viewBox="0 0 191 134" fill="none" xmlns="http://www.w3.org/2000/svg">
<path d="M25.7808 59.203C39.5879 54.0265 69.9292 40.9937 80.8378 30.2748C94.4734 16.8763 125.554 3.53943 133.786 2.24155C142.018 0.943669 158.885 4.47114 152.7 22.3193C158.14 19.9618 170.655 16.3388 177.193 20.7073C185.365 26.168 191.14 34.2565 187.529 39.8878C183.917 45.5191 184.031 53.3753 159.103 62.9299C163.214 62.8442 171.944 63.0425 173.977 64.5217C176.518 66.3708 191.333 74.7212 185.294 86.3596C179.255 97.998 167.095 99.3528 159.412 100.564C153.266 101.533 137.23 102.562 129.98 102.955C124.589 103.242 112.858 105.654 109.067 113.001C104.328 122.185 83.1277 123.278 76.1664 125.5C69.2052 127.723 45.2042 125.32 36.4804 130.632C27.7566 135.945 -0.279087 93.6832 2.14841 87.6761C4.57591 81.669 1.74758 70.8663 25.7808 59.203Z" fill="#CBA680"/>
<path d="M152.7 22.3193C158.885 4.47114 142.018 0.943669 133.786 2.24155C125.554 3.53943 94.4734 16.8763 80.8378 30.2748C69.9292 40.9937 39.5879 54.0265 25.7808 59.203C1.74758 70.8663 4.57591 81.669 2.14841 87.6761C-0.279087 93.6832 27.7566 135.945 36.4804 130.632C45.2042 125.32 69.2052 127.723 76.1664 125.5C83.1277 123.278 104.328 122.185 109.067 113.001C112.858 105.654 124.589 103.242 129.98 102.955C137.23 102.562 153.266 101.533 159.412 100.564C167.095 99.3528 179.255 97.998 185.294 86.3596C191.333 74.7212 176.518 66.3708 173.977 64.5217C171.944 63.0425 163.214 62.8442 159.103 62.9299M152.7 22.3193C158.14 19.9618 170.655 16.3388 177.193 20.7073C185.365 26.168 191.14 34.2565 187.529 39.8878C183.917 45.5191 184.031 53.3753 159.103 62.9299M152.7 22.3193C150.87 26.1699 144.107 35.5976 131.698 42.5036C116.186 51.1361 104.804 57.43 100.701 67.0759M159.103 62.9299C153.191 63.487 138.953 67.1191 129.293 77.1913M73.8102 71.3156C73.0686 72.5574 72.7462 75.9828 77.3897 79.7502C83.1941 84.4594 90.0664 92.3748 82.0349 102.078C75.6096 109.84 66.0136 106.291 62.0188 103.546C57.8509 99.7038 47.9726 92.9372 41.8024 96.6098" stroke="black" stroke-width="4" stroke-linecap="round"/>
</svg>
