<svg width="202" height="174" viewBox="0 0 202 174" fill="none" xmlns="http://www.w3.org/2000/svg">
<path d="M11.4691 9.82592C6.13581 20.3259 -2.63085 45.3259 4.96915 61.3259C14.4691 81.3259 26.4691 81.3259 38.4691 112.826C50.4691 144.326 76.4691 171.326 99.4691 164.826C101.136 163.993 105.169 161.326 107.969 157.326C108.302 160.493 112.269 167.526 125.469 170.326C141.969 173.826 159.969 163.326 160.969 159.326C167.302 160.826 181.669 161.826 188.469 153.826C196.969 143.826 205.969 134.326 192.969 106.326C182.569 83.9259 154.303 74.6593 141.469 72.8259C123.969 68.3259 87.6692 53.0259 82.4692 27.8259C82.8026 22.8259 82.6692 12.2259 79.4692 9.82592C75.4692 6.82592 25.9691 -6.17408 11.4691 9.82592Z" fill="#CDA47C"/>
<path d="M91.9692 94.8259C124.469 129.826 109.469 157.326 107.969 157.326C105.169 161.326 101.136 163.993 99.4691 164.826C76.4691 171.326 50.4691 144.326 38.4691 112.826C26.4691 81.3259 14.4691 81.3259 4.96915 61.3259C-2.63085 45.3259 6.13581 20.3259 11.4691 9.82592C25.9691 -6.17408 75.4692 6.82592 79.4692 9.82592C82.6692 12.2259 82.8026 22.8259 82.4692 27.8259C87.6692 53.0259 123.969 68.3259 141.469 72.8259C154.303 74.6593 182.569 83.9259 192.969 106.326C205.969 134.326 196.969 143.826 188.469 153.826C181.669 161.826 167.302 160.826 160.969 159.326M133.469 76.8259C177.469 107.226 170.136 144.493 160.969 159.326C159.969 163.326 141.969 173.826 125.469 170.326C112.269 167.526 108.302 160.493 107.969 157.326" stroke="black" stroke-width="4"/>
</svg>
