<svg width="744" height="386" viewBox="0 0 744 386" fill="none" xmlns="http://www.w3.org/2000/svg">
<path d="M162.5 368.189C205 316.189 447 286.689 590 380.689C584.4 355.889 578.333 322.689 576 309.189C562 237.689 554.5 235.689 553 199.689C551.8 170.889 577.167 159.689 590 157.689C600.5 157.189 632.1 149.889 674.5 124.689C727.5 93.1892 732.5 99.1892 738 95.6892C742.4 92.8892 741.167 88.5225 740 86.6892C715.5 73.1892 720.5 25.1892 719.5 11.6892C718.5 -1.81079 706 11.6892 662.5 17.1892C619 22.6892 636.5 23.6892 558.5 32.1892C496.1 38.9892 474.5 21.3559 471.5 11.6892C391.9 29.2892 312 22.6892 282 17.1892C266.8 28.7892 253 32.0225 248 32.1892C181.2 31.7892 65.8333 12.3559 16.5 2.68921C37 50.6892 2 77.1892 2 81.6892C33.5 87.1892 50.5 109.689 102.5 128.689C154.5 147.689 143.5 153.689 180 160.189C216.5 166.689 199 224.189 185.5 257.189C174.7 283.589 165.667 342.189 162.5 368.189Z" fill="#195087" stroke="black" stroke-width="4"/>
<path d="M394.5 231.176V237.176C396 236.176 399.5 234.776 401.5 237.176C403.5 239.576 402.333 264.509 401.5 276.676C401.5 280.176 403.4 287.476 411 288.676C418.6 289.876 432.833 289.176 439 288.676C442.167 287.676 448.4 283.376 448 274.176C447.6 264.976 447.833 249.009 448 242.176L454 240.176C455 238.676 456 235.476 452 234.676C447 233.676 432 231.176 433.5 237.176C434.667 236.842 437.4 236.776 439 239.176C441 242.176 439 270.176 439 271.176C439 272.176 439.5 283.676 432.5 282.676C425.5 281.676 417 287.676 413.5 278.176C410 268.676 409.5 241.176 412.5 239.176C415.5 237.176 418.5 238.676 418.5 236.176C418.5 233.676 419.5 231.176 416.5 231.176H394.5Z" fill="white"/>
<path d="M364.5 261.676C364 260.176 353 256.176 352.5 247.176C352 238.176 359.5 229.676 364.5 228.676C369.5 227.676 375.5 229.676 379 231.176C382.5 232.676 385.5 230.176 385.5 228.676C385.5 227.176 391.5 236.176 388.5 246.176L383.5 245.176C382.833 241.509 379.8 234.576 373 236.176C364.5 238.176 362 237.676 365.5 246.176C369 254.676 378.5 250.676 387.5 258.176C394.7 264.176 391.167 276.342 388.5 281.676C386 285.009 378.4 291.076 368 288.676C364.833 287.176 358.5 284.476 358.5 285.676C358.5 287.176 354 293.676 351.5 285.676C349.5 279.276 351.333 271.676 352.5 268.676H357C356.167 271.009 355.5 275.876 359.5 276.676C364.5 277.676 369.242 284.676 380.5 276.676C381.667 274.342 383 269.176 379 267.176C375 265.176 367.667 262.676 364.5 261.676Z" fill="white"/>
<path fill-rule="evenodd" clip-rule="evenodd" d="M298.5 233.676V238.176L304 240.176V284.176L298.5 287.176H332C336.333 285.676 345.2 280.976 346 274.176C347 265.676 339.5 257.676 337 258.176C338.667 256.676 342.3 253.276 343.5 251.676C345 249.676 348 234.676 337 233.676C328.2 232.876 307.667 232.676 298.5 232.676V233.676ZM316 254.676V238.176H328.5C330.167 238.842 333.6 241.176 334 245.176C334.4 249.176 329.5 253.176 327 254.676H316ZM315 281.676V262.676C318.5 262.009 326.1 260.876 328.5 261.676C331.5 262.676 335.5 267.176 334 274.176C332.8 279.776 328.833 281.509 327 281.676H315Z" fill="white"/>
<path d="M279.5 241.176L278 284.176L271 288.676V291.176L296 290.176L295 285.676L289.5 284.176V240.176L296 238.176L294 233.676L272.5 236.176V241.176H279.5Z" fill="white"/>
<path d="M416.5 231.176C414.1 231.176 400.833 231.176 394.5 231.176V237.176C396 236.176 399.5 234.776 401.5 237.176C403.5 239.576 402.333 264.509 401.5 276.676C401.5 280.176 403.4 287.476 411 288.676C418.6 289.876 432.833 289.176 439 288.676C442.167 287.676 448.4 283.376 448 274.176C447.6 264.976 447.833 249.009 448 242.176L454 240.176C455 238.676 456 235.476 452 234.676C447 233.676 432 231.176 433.5 237.176C434.667 236.842 437.4 236.776 439 239.176C441 242.176 439 270.176 439 271.176C439 272.176 439.5 283.676 432.5 282.676C425.5 281.676 417 287.676 413.5 278.176C410 268.676 409.5 241.176 412.5 239.176C415.5 237.176 418.5 238.676 418.5 236.176C418.5 233.676 419.5 231.176 416.5 231.176ZM394.5 231.176H416.5M279.5 241.176L278 284.176L271 288.676V291.176L296 290.176L295 285.676L289.5 284.176V240.176L296 238.176L294 233.676L272.5 236.176V241.176H279.5ZM298.5 233.676V238.176L304 240.176V284.176L298.5 287.176H332C336.333 285.676 345.2 280.976 346 274.176C347 265.676 339.5 257.676 337 258.176C338.667 256.676 342.3 253.276 343.5 251.676C345 249.676 348 234.676 337 233.676C328.2 232.876 307.667 232.676 298.5 232.676V233.676ZM316 238.176V254.676H327C329.5 253.176 334.4 249.176 334 245.176C333.6 241.176 330.167 238.842 328.5 238.176H316ZM315 262.676V281.676H327C328.833 281.509 332.8 279.776 334 274.176C335.5 267.176 331.5 262.676 328.5 261.676C326.1 260.876 318.5 262.009 315 262.676ZM364.5 261.676C364 260.176 353 256.176 352.5 247.176C352 238.176 359.5 229.676 364.5 228.676C369.5 227.676 375.5 229.676 379 231.176C382.5 232.676 385.5 230.176 385.5 228.676C385.5 227.176 391.5 236.176 388.5 246.176L383.5 245.176C382.833 241.509 379.8 234.576 373 236.176C364.5 238.176 362 237.676 365.5 246.176C369 254.676 378.5 250.676 387.5 258.176C394.7 264.176 391.167 276.342 388.5 281.676C386 285.009 378.4 291.076 368 288.676C364.833 287.176 358.5 284.476 358.5 285.676C358.5 287.176 354 293.676 351.5 285.676C349.5 279.276 351.333 271.676 352.5 268.676H357C356.167 271.009 355.5 275.876 359.5 276.676C364.5 277.676 369.242 284.676 380.5 276.676C381.667 274.342 383 269.176 379 267.176C375 265.176 367.667 262.676 364.5 261.676Z" stroke="black" stroke-width="2" stroke-linecap="round"/>
<path fill-rule="evenodd" clip-rule="evenodd" d="M269.5 186.176C263.667 178.009 254.9 157.076 266.5 138.676C278.1 120.276 295.333 108.676 302.5 105.176C314.833 99.8424 349 89.8758 387 92.6758C434.5 96.1758 479.5 131.176 476.5 154.676C473.5 178.176 469 203.676 405.5 208.676C342 213.676 323 210.676 294.5 201.676C289.5 199.62 277.5 193.642 269.5 186.176ZM272.5 136.676C260.1 157.876 269 176.509 275 183.176C275.5 184.176 280.6 188.176 297 196.176C313.4 204.176 343.5 205.509 356.5 205.176C377.5 205.342 423 204.176 437 198.176C451 192.176 459.167 185.676 461.5 183.176C484.5 149.176 467.5 140.176 453.5 124.676C442.3 112.276 419.167 104.509 409 102.176C406.667 102.009 394.3 101.176 363.5 99.1758C325 96.6758 288 110.176 272.5 136.676Z" fill="white"/>
<path d="M266 186.676L272.5 192.676L233 206.176L232 197.176L266 186.676Z" fill="white"/>
<path d="M260.5 179.676L233 191.176L230.5 181.676L257.5 171.176L260.5 179.676Z" fill="white"/>
<path d="M257.5 165.176L237 171.176C236 168.509 234.2 163.276 235 163.676C235.8 164.076 250.333 159.176 257.5 156.676V165.176Z" fill="white"/>
<path d="M259.5 150.176L241 156.676L237 150.176L260.5 141.676L259.5 150.176Z" fill="white"/>
<path d="M269.5 130.176L242 140.176V134.176L269.5 123.676V130.176Z" fill="white"/>
<path d="M479 157.676L477.5 164.676L510.5 173.676V165.676L479 157.676Z" fill="white"/>
<path d="M477.5 172.676L473.5 178.176L510.5 189.676L512.5 179.676L477.5 172.676Z" fill="white"/>
<path d="M469.5 186.176C467.5 187.676 463.5 190.876 463.5 191.676C463.5 192.476 494.167 202.009 509.5 206.676L511.5 195.176L469.5 186.176Z" fill="white"/>
<path d="M476.5 142.176L477.5 150.176L508 158.676L507 150.176L476.5 142.176Z" fill="white"/>
<path d="M463.5 124.676L471.5 135.676L505.5 143.676V136.676L463.5 124.676Z" fill="white"/>
<path d="M363.5 107.676C368.5 111.509 375.5 120.276 363.5 124.676C351.5 129.076 349.5 142.176 350 148.176C351 150.676 355.4 156.076 365 157.676V168.676C365 175.176 369.5 180.176 374.5 178.176C379.5 176.176 384 171.176 389 160.676C392.814 152.667 390.87 150.385 389.236 150.19C389.154 150.187 389.075 150.183 389 150.176C389.078 150.176 389.157 150.18 389.236 150.19C391.154 150.247 394.849 149.046 396 143.676C397.5 136.676 397 132.676 400 136.676C403 140.676 396 149.176 402.5 150.176C409 151.176 409 143.176 414 146.676C419 150.176 420.5 155.176 424 151.676C427.5 148.176 435 147.676 430.5 141.676C436 136.342 443.7 123.776 430.5 116.176C417.3 108.576 398.333 107.342 390.5 107.676C389.5 106.509 387.1 104.376 385.5 105.176C383.5 106.176 376.5 103.176 374.5 107.676C372.5 112.176 366 102.676 363.5 107.676Z" fill="white"/>
<path d="M287 127.176C288.5 132.509 293.3 142.276 300.5 138.676C309.5 134.176 314.5 134.176 310.5 142.176C306.5 150.176 299.5 150.676 304 156.676C308.5 162.676 312 163.176 319 156.676C326 150.176 332 159.176 330.5 165.176C329 171.176 316.5 177.176 321.5 186.676C326.5 196.176 369.5 193.176 396 189.176C401.667 189.176 413.8 189.876 417 192.676C421 196.176 442 189.176 445 183.176C442.5 183.176 424 189.176 427.5 178.176C431 167.176 433 164.176 425 162.176C417 160.176 434 156.176 438.5 163.676C442.1 169.676 442.333 160.176 442 154.676C443.833 153.176 448.7 152.276 453.5 160.676C459.5 171.176 449 166.176 454.5 176.176C460 186.176 470 147.676 460 141.676C458.833 139.509 457.5 135.876 461.5 138.676C466.5 142.176 473 158.176 469.5 163.676C466 169.176 464.5 185.676 440 192.676C415.5 199.676 342.5 207.676 312.5 194.676C282.5 181.676 279.398 192.176 272.5 166.176C266.982 145.376 279.867 131.509 287 127.176Z" fill="white"/>
<path d="M312.5 118.176C312.167 121.842 313.5 129.076 321.5 128.676C331.5 128.176 335.5 120.176 345.5 118.176C353.5 116.576 353.167 110.509 352 107.676C340.833 109.342 317.3 113.776 312.5 118.176Z" fill="white"/>
<path d="M365 168.676C365 163.476 365 159.176 365 157.676C355.4 156.076 351 150.676 350 148.176C349.5 142.176 351.5 129.076 363.5 124.676C375.5 120.276 368.5 111.509 363.5 107.676C366 102.676 372.5 112.176 374.5 107.676C376.5 103.176 383.5 106.176 385.5 105.176C387.1 104.376 389.5 106.509 390.5 107.676C398.333 107.342 417.3 108.576 430.5 116.176C443.7 123.776 436 136.342 430.5 141.676C435 147.676 427.5 148.176 424 151.676C420.5 155.176 419 150.176 414 146.676C409 143.176 409 151.176 402.5 150.176C396 149.176 403 140.676 400 136.676C397 132.676 397.5 136.676 396 143.676C394.849 149.046 391.154 150.247 389.236 150.19M365 157.676V168.676M365 168.676C365 175.176 369.5 180.176 374.5 178.176C379.5 176.176 384 171.176 389 160.676C392.814 152.667 390.87 150.385 389.236 150.19M389.236 150.19C389.154 150.187 389.075 150.183 389 150.176C389.078 150.176 389.157 150.18 389.236 150.19ZM266 186.676L272.5 192.676L233 206.176L232 197.176L266 186.676ZM260.5 179.676L233 191.176L230.5 181.676L257.5 171.176L260.5 179.676ZM257.5 165.176L237 171.176C236 168.509 234.2 163.276 235 163.676C235.8 164.076 250.333 159.176 257.5 156.676V165.176ZM259.5 150.176L241 156.676L237 150.176L260.5 141.676L259.5 150.176ZM269.5 130.176L242 140.176V134.176L269.5 123.676V130.176ZM463.5 124.676L471.5 135.676L505.5 143.676V136.676L463.5 124.676ZM476.5 142.176L477.5 150.176L508 158.676L507 150.176L476.5 142.176ZM479 157.676L477.5 164.676L510.5 173.676V165.676L479 157.676ZM477.5 172.676L473.5 178.176L510.5 189.676L512.5 179.676L477.5 172.676ZM469.5 186.176C467.5 187.676 463.5 190.876 463.5 191.676C463.5 192.476 494.167 202.009 509.5 206.676L511.5 195.176L469.5 186.176ZM269.5 186.176C263.667 178.009 254.9 157.076 266.5 138.676C278.1 120.276 295.333 108.676 302.5 105.176C314.833 99.8424 349 89.8758 387 92.6758C434.5 96.1758 479.5 131.176 476.5 154.676C473.5 178.176 469 203.676 405.5 208.676C342 213.676 323 210.676 294.5 201.676C289.5 199.62 277.5 193.642 269.5 186.176ZM275 183.176C269 176.509 260.1 157.876 272.5 136.676C288 110.176 325 96.6758 363.5 99.1758C394.3 101.176 406.667 102.009 409 102.176C419.167 104.509 442.3 112.276 453.5 124.676C467.5 140.176 484.5 149.176 461.5 183.176C459.167 185.676 451 192.176 437 198.176C423 204.176 377.5 205.342 356.5 205.176C343.5 205.509 313.4 204.176 297 196.176C280.6 188.176 275.5 184.176 275 183.176ZM312.5 118.176C312.167 121.842 313.5 129.076 321.5 128.676C331.5 128.176 335.5 120.176 345.5 118.176C353.5 116.576 353.167 110.509 352 107.676C340.833 109.342 317.3 113.776 312.5 118.176ZM287 127.176C288.5 132.509 293.3 142.276 300.5 138.676C309.5 134.176 314.5 134.176 310.5 142.176C306.5 150.176 299.5 150.676 304 156.676C308.5 162.676 312 163.176 319 156.676C326 150.176 332 159.176 330.5 165.176C329 171.176 316.5 177.176 321.5 186.676C326.5 196.176 369.5 193.176 396 189.176C401.667 189.176 413.8 189.876 417 192.676C421 196.176 442 189.176 445 183.176C442.5 183.176 424 189.176 427.5 178.176C431 167.176 433 164.176 425 162.176C417 160.176 434 156.176 438.5 163.676C442.1 169.676 442.333 160.176 442 154.676C443.833 153.176 448.7 152.276 453.5 160.676C459.5 171.176 449 166.176 454.5 176.176C460 186.176 470 147.676 460 141.676C458.833 139.509 457.5 135.876 461.5 138.676C466.5 142.176 473 158.176 469.5 163.676C466 169.176 464.5 185.676 440 192.676C415.5 199.676 342.5 207.676 312.5 194.676C282.5 181.676 279.398 192.176 272.5 166.176C266.982 145.376 279.867 131.509 287 127.176Z" stroke="black" stroke-width="2" stroke-linecap="round"/>
</svg>
