<svg width="619" height="807" viewBox="0 0 619 807" fill="none" xmlns="http://www.w3.org/2000/svg">
<path d="M248.251 800.87C295.917 774.037 398.751 664.67 428.751 441.87C462.251 456.87 543.751 455.27 601.751 328.87C674.251 170.87 481.751 16.8699 450.751 13.3699C419.751 9.86991 328.751 -35.6301 213.751 73.3699C121.751 160.57 39.7506 406.037 10.2506 517.87C-15.2494 628.87 -3.34944 840.87 248.251 800.87Z" fill="#A8552D"/>
<path d="M428.751 441.87C398.751 664.67 295.917 774.037 248.251 800.87C-3.34944 840.87 -15.2494 628.87 10.2506 517.87C39.7506 406.037 121.751 160.57 213.751 73.3699C328.751 -35.6301 419.751 9.86991 450.751 13.3699C481.751 16.8699 674.251 170.87 601.751 328.87C543.751 455.27 462.251 456.87 428.751 441.87ZM428.751 441.87C430.584 433.537 435.15 414.17 438.75 403.37" stroke="black" stroke-width="2" stroke-linecap="round"/>
</svg>
