<svg width="640" height="614" viewBox="0 0 640 614" fill="none" xmlns="http://www.w3.org/2000/svg">
<mask id="mask0_121_32" style="mask-type:alpha" maskUnits="userSpaceOnUse" x="0" y="0" width="640" height="614">
<rect width="640" height="614" fill="#D9D9D9"/>
</mask>
<g mask="url(#mask0_121_32)">
<rect x="36" y="65" width="512" height="512" rx="80" fill="#2E3A8C"/>
<path d="M156.832 146.272C162.544 144.928 170.776 145.264 181.528 147.28C190.936 148.96 201.184 153.832 212.272 161.896C240.832 183.4 257.464 230.104 262.168 302.008C263.848 327.208 263.512 356.608 261.16 390.208C260.488 408.016 259.312 421.792 257.632 431.536V433.552L260.656 431.032C316.768 382.648 358.768 337.624 386.656 295.96C399.424 276.472 407.488 260.512 410.848 248.08C412.528 242.032 412.528 235.816 410.848 229.432C407.488 220.36 401.776 213.64 393.712 209.272C388 206.584 381.784 204.904 375.064 204.232C372.376 204.232 370.36 203.896 369.016 203.224C364.984 200.536 363.472 194.824 364.48 186.088C365.488 171.64 370.528 159.88 379.6 150.808C381.616 149.128 383.464 147.784 385.144 146.776C386.824 146.104 389.68 145.768 393.712 145.768C403.792 146.104 413.032 149.296 421.432 155.344C430.84 161.728 437.56 171.136 441.592 183.568C447.976 201.712 447.64 222.88 440.584 247.072C425.8 302.512 383.128 365.176 312.568 435.064C279.64 467.32 248.56 494.032 219.328 515.2C215.296 517.888 212.272 519.232 210.256 519.232C208.576 519.232 207.064 518.56 205.72 517.216C201.688 513.184 200.68 505.12 202.696 493.024C207.064 468.16 210.088 440.44 211.768 409.864C215.128 363.832 214.12 321.832 208.744 283.864C202.696 240.52 190.096 210.952 170.944 195.16C161.872 187.768 150.28 183.568 136.168 182.56C133.48 182.56 130.96 181.888 128.608 180.544C124.24 178.192 123.4 173.824 126.088 167.44C128.776 162.736 132.304 158.704 136.672 155.344C143.392 150.304 150.112 147.28 156.832 146.272Z" fill="#F6F1E6"/>
<path d="M459.891 116.707L419.471 76.9514C419.471 76.9514 409.19 94.0031 404.271 99.2093C399.352 104.415 396.525 110.285 396.525 110.285C396.525 110.285 393.718 117.541 397.267 123.039C400.817 128.537 409 156.584 433.635 171.207C464.43 189.486 504.547 181.265 515.327 168.896C516.487 166.011 519.008 158.824 519.813 153.151C520.618 147.478 526.403 133.993 529.194 127.96L459.891 116.707Z" fill="#F6F1E6"/>
<path d="M620.535 142.79L502.32 48.6492L350.779 9.38965L419.471 76.9514L459.891 116.707L529.194 127.96L620.535 142.79Z" fill="#F6F1E6"/>
<path d="M529.194 127.96L459.891 116.707L419.471 76.9514L350.779 9.38965L502.32 48.6492L620.535 142.79L529.194 127.96ZM419.471 76.9514C419.471 76.9514 409.19 94.0031 404.271 99.2093C399.352 104.415 396.525 110.285 396.525 110.285C396.525 110.285 393.718 117.541 397.267 123.039C400.817 128.537 409 156.584 433.635 171.207C464.43 189.486 504.547 181.265 515.327 168.896C516.487 166.011 519.008 158.824 519.813 153.151C520.618 147.478 526.403 133.993 529.194 127.96" stroke="#15161E" stroke-width="5"/>
<path d="M491.249 69.4863C494.698 71.1981 498.148 72.9097 501.598 74.6212C510.922 79.2471 520.245 83.8726 529.568 88.5016C529.856 88.6451 529.149 90.8564 529.354 91.174L529.092 91.031C529.092 91.031 529.092 91.031 529.092 91.031C529.935 92.6757 530.48 94.8094 531.826 95.6321C532.799 96.227 533.773 96.8219 534.746 97.4168C535.974 98.1671 538.489 96.8106 539.733 97.5347L539.995 97.6777C539.995 97.6777 539.995 97.6777 539.995 97.6777C542.725 98.9216 545.456 100.162 548.157 101.464L547.701 101.189C547.701 101.189 547.701 101.189 547.701 101.189C548.41 101.711 545.206 107.544 545.893 108.094C561.809 120.842 577.731 133.583 593.655 146.32L589.976 131.512C575.8 158.172 561.633 184.837 547.457 211.497C545.648 214.9 543.839 218.303 542.029 221.705C551.639 226.335 561.249 230.964 570.858 235.594C572.392 232.058 573.925 228.522 575.458 224.987C587.472 197.285 599.494 169.587 611.508 141.885L615.637 132.363L607.829 127.077C590.944 115.645 574.056 104.217 557.162 92.7965C556.433 92.3033 551.812 97.092 551.104 96.5701C551.104 96.5701 551.104 96.5701 551.104 96.5701L550.647 96.2954C547.946 94.9938 545.273 93.6315 542.599 92.2723C542.599 92.2723 542.599 92.2723 542.599 92.2723L542.862 92.4152C541.65 91.6387 541.71 88.7814 540.483 88.0311C539.509 87.4362 538.536 86.8413 537.563 86.2464C536.217 85.4237 534.069 85.9121 532.221 85.9115C532.221 85.9115 532.221 85.9115 532.221 85.9115L531.958 85.7685C531.582 85.806 530.294 87.7373 530.002 87.6007C520.571 83.1958 511.143 78.7872 501.715 74.379C498.226 72.748 494.738 71.117 491.249 69.4863Z" fill="#15161E"/>
</g>
</svg>
