<svg width="1043" height="1263" viewBox="0 0 1043 1263" fill="none" xmlns="http://www.w3.org/2000/svg">
<path d="M671.849 986.434C719.515 959.601 822.349 850.234 852.349 627.434C885.849 642.434 967.349 640.834 1025.35 514.434C1097.85 356.434 905.349 202.434 874.349 198.934C843.349 195.434 752.349 149.934 637.349 258.934C545.349 346.134 463.349 591.601 433.849 703.434C408.349 814.434 420.249 1026.43 671.849 986.434Z" fill="#A8552D"/>
<path d="M852.349 627.434C822.349 850.234 719.515 959.601 671.849 986.434C420.249 1026.43 408.349 814.434 433.849 703.434C463.349 591.601 545.349 346.134 637.349 258.934C752.349 149.934 843.349 195.434 874.349 198.934C905.349 202.434 1097.85 356.434 1025.35 514.434C967.349 640.834 885.849 642.434 852.349 627.434ZM852.349 627.434C854.182 619.101 858.749 599.734 862.349 588.934" stroke="black" stroke-width="2" stroke-linecap="round"/>
<path d="M391.598 1078.06C396.932 1088.56 405.698 1113.56 398.098 1129.56C388.598 1149.56 376.598 1149.56 364.598 1181.06C352.598 1212.56 326.598 1239.56 303.598 1233.06C301.932 1232.23 297.898 1229.56 295.098 1225.56C294.765 1228.73 290.798 1235.76 277.598 1238.56C261.098 1242.06 243.098 1231.56 242.098 1227.56C235.765 1229.06 221.398 1230.06 214.598 1222.06C206.098 1212.06 197.098 1202.56 210.098 1174.56C220.498 1152.16 248.765 1142.9 261.598 1141.06C279.098 1136.56 315.398 1121.26 320.598 1096.06C320.265 1091.06 320.398 1080.46 323.598 1078.06C327.598 1075.06 377.098 1062.06 391.598 1078.06Z" fill="#CDA47C"/>
<path d="M311.098 1163.06C278.598 1198.06 293.598 1225.56 295.098 1225.56C297.898 1229.56 301.932 1232.23 303.598 1233.06C326.598 1239.56 352.598 1212.56 364.598 1181.06C376.598 1149.56 388.598 1149.56 398.098 1129.56C405.698 1113.56 396.932 1088.56 391.598 1078.06C377.098 1062.06 327.598 1075.06 323.598 1078.06C320.398 1080.46 320.265 1091.06 320.598 1096.06C315.398 1121.26 279.098 1136.56 261.598 1141.06C248.765 1142.9 220.498 1152.16 210.098 1174.56C197.098 1202.56 206.098 1212.06 214.598 1222.06C221.398 1230.06 235.765 1229.06 242.098 1227.56M269.598 1145.06C225.598 1175.46 232.932 1212.73 242.098 1227.56C243.098 1231.56 261.098 1242.06 277.598 1238.56C290.798 1235.76 294.765 1228.73 295.098 1225.56" stroke="black" stroke-width="4"/>
<path d="M585.067 1099.39C579.734 1109.89 570.967 1134.89 578.567 1150.89C588.067 1170.89 600.067 1170.89 612.067 1202.39C624.067 1233.89 650.067 1260.89 673.067 1254.39C674.734 1253.56 678.767 1250.89 681.567 1246.89C681.901 1250.06 685.867 1257.09 699.067 1259.89C715.567 1263.39 733.567 1252.89 734.567 1248.89C740.901 1250.39 755.267 1251.39 762.067 1243.39C770.567 1233.39 779.567 1223.89 766.567 1195.89C756.167 1173.49 727.901 1164.22 715.067 1162.39C697.567 1157.89 661.267 1142.59 656.067 1117.39C656.401 1112.39 656.267 1101.79 653.067 1099.39C649.067 1096.39 599.567 1083.39 585.067 1099.39Z" fill="#CDA47C"/>
<path d="M665.567 1184.39C698.067 1219.39 683.067 1246.89 681.567 1246.89C678.767 1250.89 674.734 1253.56 673.067 1254.39C650.067 1260.89 624.067 1233.89 612.067 1202.39C600.067 1170.89 588.067 1170.89 578.567 1150.89C570.967 1134.89 579.734 1109.89 585.067 1099.39C599.567 1083.39 649.067 1096.39 653.067 1099.39C656.267 1101.79 656.401 1112.39 656.067 1117.39C661.267 1142.59 697.567 1157.89 715.067 1162.39C727.901 1164.22 756.167 1173.49 766.567 1195.89C779.567 1223.89 770.567 1233.39 762.067 1243.39C755.267 1251.39 740.901 1250.39 734.567 1248.89M707.067 1166.39C751.067 1196.79 743.734 1234.06 734.567 1248.89C733.567 1252.89 715.567 1263.39 699.067 1259.89C685.867 1257.09 681.901 1250.06 681.567 1246.89" stroke="black" stroke-width="4"/>
<path d="M470.098 1025.07C443.931 1022.4 391.398 1028.87 390.598 1076.07C392.598 1082.07 391.098 1095.06 369.098 1099.06C341.598 1104.06 323.098 1101.56 318.598 1094.56C314.098 1087.56 286.098 1048.07 263.098 1025.07C244.698 1006.66 243.431 966.065 245.098 948.065C246.765 929.565 256.698 883.765 283.098 848.565C309.498 813.365 313.431 800.232 312.098 798.065C323.931 774.732 408.598 701.664 422.598 742.064C440.098 792.564 564.098 928.064 470.098 1025.07Z" fill="#AB5329" stroke="black" stroke-width="4"/>
<path d="M518.302 1027.07C544.532 1029.02 595.127 1044.56 587.667 1091.18C584.649 1096.73 583.855 1109.8 604.817 1117.58C631.02 1127.31 649.672 1128.08 655.326 1121.97C660.98 1115.87 695.452 1081.87 722.117 1063.24C743.45 1048.34 751.791 1008.59 753.296 990.571C754.888 972.064 753.111 925.233 733.268 885.962C713.425 846.69 711.847 833.071 713.539 831.171C705.965 806.129 635.369 719.391 614.525 756.723C588.469 803.388 442.699 915.134 518.302 1027.07Z" fill="#AB5329" stroke="black" stroke-width="4"/>
<path d="M461.598 1024.06C412.098 977.731 317.198 868.464 333.598 802.064C337.931 713.398 360.098 526.064 414.098 486.064C452.431 494.398 542.298 506.064 595.098 486.064C620.765 487.231 669.298 552.064 658.098 802.064C656.765 820.064 646.098 863.564 614.098 893.564C574.098 931.064 549.098 999.564 534.598 1029.06C518.598 1030.9 481.598 1032.46 461.598 1024.06Z" fill="#CCA47F" stroke="black" stroke-width="4"/>
<path d="M150.098 466.064C137.098 463.398 108.298 456.064 97.0983 448.064C83.0983 438.064 53.5983 430.564 46.0983 430.564C38.5983 430.564 24.0983 436.064 32.0983 451.064C26.9316 449.731 15.2982 448.264 10.0982 453.064C3.59819 459.064 -0.401809 467.064 3.59819 471.564C7.59819 476.064 8.59837 483.064 32.0983 488.064C28.4316 488.564 20.6981 489.964 19.0981 491.564C17.0981 493.564 5.09814 503.064 12.0981 512.564C19.0981 522.064 30.0981 521.564 37.0981 521.564C42.6981 521.564 57.0981 520.231 63.5981 519.564C68.4315 519.064 79.1981 519.564 83.5981 525.564C89.0981 533.064 108.098 531.064 114.598 532.064C121.098 533.064 142.098 527.564 150.598 531.064C159.098 534.564 178.098 493.064 175.098 488.064C172.098 483.064 173.098 473.064 150.098 466.064Z" fill="#CBA680"/>
<path d="M32.0983 451.064C24.0983 436.064 38.5983 430.564 46.0983 430.564C53.5983 430.564 83.0983 438.064 97.0983 448.064C108.298 456.064 137.098 463.398 150.098 466.064C173.098 473.064 172.098 483.064 175.098 488.064C178.098 493.064 159.098 534.564 150.598 531.064C142.098 527.564 121.098 533.064 114.598 532.064C108.098 531.064 89.0981 533.064 83.5981 525.564C79.1981 519.564 68.4315 519.064 63.5981 519.564C57.0981 520.231 42.6981 521.564 37.0981 521.564C30.0981 521.564 19.0981 522.064 12.0981 512.564C5.09814 503.064 17.0981 493.564 19.0981 491.564C20.6981 489.964 28.4316 488.564 32.0983 488.064M32.0983 451.064C26.9316 449.731 15.2982 448.264 10.0982 453.064C3.59819 459.064 -0.401809 467.064 3.59819 471.564C7.59819 476.064 8.59837 483.064 32.0983 488.064M32.0983 451.064C34.2649 454.231 41.5981 461.664 53.5981 466.064C68.5981 471.564 79.5981 475.564 84.5981 483.564M32.0983 488.064C37.4316 487.731 50.5981 488.964 60.5981 496.564M109.098 483.564C109.931 484.564 110.698 487.564 107.098 491.564C102.598 496.564 97.5981 504.564 106.098 512.064C112.898 518.064 120.931 513.564 124.098 510.564C127.265 506.564 135.098 499.164 141.098 501.564" stroke="black" stroke-width="4" stroke-linecap="round"/>
<path d="M850.53 474.157C864.337 468.981 894.678 455.948 905.587 445.229C919.223 431.831 950.304 418.494 958.535 417.196C966.767 415.898 983.634 419.425 977.449 437.274C982.889 434.916 995.404 431.293 1001.94 435.662C1010.11 441.122 1015.89 449.211 1012.28 454.842C1008.67 460.473 1008.78 468.33 983.852 477.884C987.963 477.798 996.693 477.997 998.726 479.476C1001.27 481.325 1016.08 489.675 1010.04 501.314C1004 512.952 991.844 514.307 984.161 515.518C978.015 516.487 961.979 517.516 954.729 517.909C949.338 518.197 937.607 520.609 933.816 527.956C929.077 537.139 907.877 538.232 900.916 540.454C893.954 542.677 869.953 540.274 861.23 545.587C852.506 550.899 824.47 508.637 826.898 502.63C829.325 496.623 826.497 485.821 850.53 474.157Z" fill="#CBA680"/>
<path d="M977.449 437.274C983.634 419.425 966.767 415.898 958.535 417.196C950.304 418.494 919.223 431.831 905.587 445.229C894.678 455.948 864.337 468.981 850.53 474.157C826.497 485.821 829.325 496.623 826.898 502.63C824.47 508.637 852.506 550.899 861.23 545.587C869.953 540.274 893.954 542.677 900.916 540.454C907.877 538.232 929.077 537.139 933.816 527.956C937.607 520.609 949.338 518.197 954.729 517.909C961.979 517.516 978.015 516.487 984.161 515.518C991.844 514.307 1004 512.952 1010.04 501.314C1016.08 489.675 1001.27 481.325 998.726 479.476C996.693 477.997 987.963 477.798 983.852 477.884M977.449 437.274C982.889 434.916 995.404 431.293 1001.94 435.662C1010.11 441.122 1015.89 449.211 1012.28 454.842C1008.67 460.473 1008.78 468.33 983.852 477.884M977.449 437.274C975.619 441.124 968.857 450.552 956.447 457.458C940.935 466.09 929.554 472.384 925.45 482.03M983.852 477.884C977.941 478.441 963.703 482.073 954.042 492.145M898.559 486.27C897.818 487.512 897.496 490.937 902.139 494.704C907.943 499.414 914.816 507.329 906.784 517.032C900.359 524.794 890.763 521.245 886.768 518.5C882.6 514.658 872.722 507.891 866.552 511.564" stroke="black" stroke-width="4" stroke-linecap="round"/>
<path d="M601.967 122.831C602.812 123.23 603.646 123.641 604.467 124.064C612.826 128.37 625.163 131.65 637.967 139.688C641.198 118.728 652.522 75.2693 673.12 57.0644C678.319 92.231 685.893 166.964 674.592 184.564C677.845 191.874 680.803 199.267 683.543 206.564C704.12 200.564 684.967 83.5644 685.967 57.0644C686.067 54.404 685.996 52.0832 685.783 50.0643C684.468 37.5767 677.769 36.6389 673.12 38.3184C672.531 38.5311 671.975 38.7858 671.467 39.0644C656.667 55.0644 618.967 101.576 601.967 122.831Z" fill="#A95226"/>
<path d="M637.967 139.688C650.438 147.518 663.352 159.861 673.467 182.064C673.846 182.896 674.221 183.73 674.592 184.564C685.893 166.964 678.319 92.231 673.12 57.0644C652.522 75.2693 641.198 118.728 637.967 139.688Z" fill="#7D3D23"/>
<path d="M673.12 11.5643C668.842 19.5643 671.337 32.7337 673.12 38.3184C677.769 36.6389 684.468 37.5767 685.783 50.0643C702.036 43.6643 708.344 31.3977 709.467 26.0643C703.067 32.4643 697.134 33.3977 694.967 33.0643C703.367 27.4643 704.134 17.731 703.467 13.5643C700.267 22.3643 690.467 28.231 685.967 30.0643C688.767 25.2643 689.8 8.39766 689.967 0.564331C685.967 14.1643 680.634 24.5643 678.467 28.0643C675.267 28.0643 673.569 17.0643 673.12 11.5643Z" fill="#542913"/>
<path d="M335.967 238.064C327.167 270.864 313.3 287.398 307.467 291.564C368.667 326.764 606.634 302.898 717.967 286.564C705.674 277.959 697.41 243.494 683.543 206.564C680.803 199.267 677.845 191.874 674.592 184.564C674.221 183.73 673.846 182.896 673.467 182.064C663.352 159.861 650.438 147.518 637.967 139.688C625.163 131.65 612.826 128.37 604.467 124.064C603.646 123.641 602.812 123.23 601.967 122.831C589.236 116.814 574.219 113.502 567.967 112.564C551.883 101.995 462.729 102.829 421.235 122.831C417.582 124.592 414.299 126.501 411.467 128.564C403.645 134.263 396.099 140.835 388.971 148.064C376.987 160.22 366.189 174.232 357.268 189.064C353.821 194.795 350.655 200.648 347.808 206.564C342.798 216.978 338.778 227.587 335.967 238.064Z" fill="#A95226"/>
<path d="M347.748 60.5643C347.808 56.4837 347.808 53.7355 347.808 53.0643C347.808 50.3087 351.739 39.9593 358.967 44.1045C365.367 28.1365 355.3 16.4244 349.467 12.5643C350.842 15.3643 350.04 24.0643 349.467 28.0643C345.067 18.8643 340.3 16.8977 338.467 17.0643C344.467 21.4643 345.3 31.5643 344.967 36.0643C338.167 25.6643 327.8 23.0643 323.467 23.0643C331.867 28.2643 336.967 36.231 338.467 39.5643C331.042 35.9643 323.707 35.731 320.967 36.0643C329.767 40.4643 342.488 54.231 347.748 60.5643Z" fill="#552313"/>
<path d="M338.467 164.564C337.667 178.164 344.361 198.231 347.808 206.564C350.655 200.648 353.821 194.795 357.268 189.064C351.069 190.064 347.808 133.564 350.967 117.564C353.494 104.764 354.687 74.231 354.967 60.5643C387.367 95.3643 391.137 133.398 388.971 148.064C396.099 140.835 403.645 134.263 411.467 128.564C414.299 126.501 417.582 124.592 421.235 122.831C416.503 96.5981 369.467 53.0643 360.967 45.5643C360.275 44.9535 359.608 44.472 358.967 44.1045C351.739 39.9593 347.808 50.3087 347.808 53.0643C347.808 53.7355 347.808 56.4837 347.748 60.5643C347.541 74.7239 346.613 104.927 342.467 120.064C337.126 139.564 339.467 147.564 338.467 164.564Z" fill="#A95226"/>
<path d="M388.971 148.064C391.137 133.398 387.367 95.3643 354.967 60.5643C354.687 74.231 353.494 104.764 350.967 117.564C347.808 133.564 351.069 190.064 357.268 189.064C366.189 174.232 376.987 160.22 388.971 148.064Z" fill="#7C3D23"/>
<path d="M601.967 122.831C589.236 116.814 574.219 113.502 567.967 112.564C551.883 101.995 462.729 102.829 421.235 122.831M674.592 184.564C674.221 183.73 673.846 182.896 673.467 182.064C663.352 159.861 650.438 147.518 637.967 139.688C625.163 131.65 612.826 128.37 604.467 124.064C603.646 123.641 602.812 123.23 601.967 122.831M601.967 122.831C618.967 101.576 656.667 55.0644 671.467 39.0644C671.975 38.7858 672.531 38.5311 673.12 38.3184M683.543 206.564C697.41 243.494 705.674 277.959 717.967 286.564C606.634 302.898 368.667 326.764 307.467 291.564C313.3 287.398 327.167 270.864 335.967 238.064C338.778 227.587 342.798 216.978 347.808 206.564M683.543 206.564C704.12 200.564 684.967 83.5644 685.967 57.0644C686.067 54.404 685.996 52.0832 685.783 50.0643M683.543 206.564C680.803 199.267 677.845 191.874 674.592 184.564M637.967 139.688C641.198 118.728 652.522 75.2693 673.12 57.0644M678.467 53.0643C676.62 54.2036 674.837 55.5461 673.12 57.0644M673.12 57.0644C678.319 92.231 685.893 166.964 674.592 184.564M673.12 38.3184C671.337 32.7337 668.842 19.5643 673.12 11.5643C673.569 17.0643 675.267 28.0643 678.467 28.0643C680.634 24.5643 685.967 14.1643 689.967 0.564331C689.8 8.39766 688.767 25.2643 685.967 30.0643C690.467 28.231 700.267 22.3643 703.467 13.5643C704.134 17.731 703.367 27.4643 694.967 33.0643C697.134 33.3977 703.067 32.4643 709.467 26.0643C708.344 31.3977 702.036 43.6643 685.783 50.0643M673.12 38.3184C677.769 36.6389 684.468 37.5767 685.783 50.0643M358.967 44.1045C351.739 39.9593 347.808 50.3087 347.808 53.0643C347.808 53.7355 347.808 56.4837 347.748 60.5643C347.541 74.7239 346.613 104.927 342.467 120.064C337.126 139.564 339.467 147.564 338.467 164.564C337.667 178.164 344.361 198.231 347.808 206.564M347.808 206.564C350.655 200.648 353.821 194.795 357.268 189.064M421.235 122.831C417.582 124.592 414.299 126.501 411.467 128.564C403.645 134.263 396.099 140.835 388.971 148.064M421.235 122.831C416.503 96.5981 369.467 53.0643 360.967 45.5643C360.275 44.9535 359.608 44.472 358.967 44.1045M388.971 148.064C391.137 133.398 387.367 95.3643 354.967 60.5643C354.687 74.231 353.494 104.764 350.967 117.564C347.808 133.564 351.069 190.064 357.268 189.064M388.971 148.064C376.987 160.22 366.189 174.232 357.268 189.064M347.748 60.5643C342.488 54.231 329.767 40.4643 320.967 36.0643C323.707 35.731 331.042 35.9643 338.467 39.5643C336.967 36.231 331.867 28.2643 323.467 23.0643C327.8 23.0643 338.167 25.6643 344.967 36.0643C345.3 31.5643 344.467 21.4643 338.467 17.0643C340.3 16.8977 345.067 18.8643 349.467 28.0643C350.04 24.0643 350.842 15.3643 349.467 12.5643C355.3 16.4244 365.367 28.1365 358.967 44.1045" stroke="black" stroke-width="4" stroke-linecap="round"/>
<path d="M461.967 411.564C473.467 437.064 501.467 436.564 517.467 436.564C533.467 436.564 560.467 406.564 566.467 393.064C571.343 382.093 577.54 354.939 594.989 336.564C567.407 356.164 523.148 349.064 504.467 343.064C465.667 361.064 430.3 344.247 417.467 333.588C431.34 356.007 453.842 393.548 461.967 411.564Z" fill="#2F100E"/>
<path fill-rule="evenodd" clip-rule="evenodd" d="M437.967 496.564C454.767 506.164 499.3 505.231 519.467 503.564C574.467 507.065 617.967 477.064 634.467 473.064C650.967 469.064 714.467 424.564 723.467 412.564C730.667 402.964 740.8 393.231 744.967 389.564C760.567 382.764 755.134 357.064 750.467 345.064C754.467 345.398 762.167 343.764 760.967 334.564C759.767 325.364 742.467 311.731 733.967 306.064C737.967 292.064 708.467 284.064 705.967 282.064C703.467 280.064 642.967 279.564 613.967 282.064C584.967 284.564 558.967 260.564 545.967 251.564C540.947 248.089 534.211 246.104 526.855 245.064C546.365 250.264 547.726 263.564 545.967 269.564C543.8 272.731 536.967 280.064 526.967 284.064C514.467 289.064 507.967 292.564 494.967 287.564C481.967 282.564 473.467 283.564 467.967 269.564C463.567 258.364 476.134 249.64 482.967 246.677C469.744 250.524 458.212 260.044 444.967 269.564C432.167 278.764 425.3 281.731 423.467 282.064C370.467 290.064 346.967 272.564 318.467 288.564C289.967 304.564 299.467 301.064 293.467 311.564C287.467 322.064 285.967 323.064 277.467 328.564C268.967 334.064 264.967 344.064 269.467 346.564C273.067 348.564 278.634 348.731 280.967 348.564C274.967 352.564 275.467 382.064 280.967 384.064C286.467 386.064 301.967 398.564 299.467 405.564C296.967 412.564 332.467 444.064 346.967 449.564C361.467 455.064 416.967 484.564 437.967 496.564ZM517.467 436.564C501.467 436.564 473.467 437.064 461.967 411.564C453.842 393.548 431.34 356.007 417.467 333.588C430.3 344.247 465.667 361.064 504.467 343.064C523.148 349.064 567.407 356.164 594.989 336.564C577.54 354.939 571.343 382.093 566.467 393.064C560.467 406.564 533.467 436.564 517.467 436.564Z" fill="#CDA57F"/>
<path d="M491.467 245.064C488.54 245.323 485.717 245.877 482.967 246.677C476.134 249.64 463.567 258.364 467.967 269.564C473.467 283.564 481.967 282.564 494.967 287.564C507.967 292.564 514.467 289.064 526.967 284.064C536.967 280.064 543.8 272.731 545.967 269.564C547.726 263.564 546.365 250.264 526.855 245.064C515.162 243.411 501.902 244.144 491.467 245.064Z" fill="#552716"/>
<path d="M482.967 246.677C469.744 250.524 458.212 260.044 444.967 269.564C432.167 278.764 425.3 281.731 423.467 282.064C370.467 290.064 346.967 272.564 318.467 288.564C289.967 304.564 299.467 301.064 293.467 311.564C287.467 322.064 285.967 323.064 277.467 328.564C268.967 334.064 264.967 344.064 269.467 346.564C273.067 348.564 278.634 348.731 280.967 348.564C274.967 352.564 275.467 382.064 280.967 384.064C286.467 386.064 301.967 398.564 299.467 405.564C296.967 412.564 332.467 444.064 346.967 449.564C361.467 455.064 416.967 484.564 437.967 496.564C454.767 506.164 499.3 505.231 519.467 503.564C574.467 507.065 617.967 477.064 634.467 473.064C650.967 469.064 714.467 424.564 723.467 412.564C730.667 402.964 740.8 393.231 744.967 389.564C760.567 382.764 755.134 357.064 750.467 345.064C754.467 345.398 762.167 343.764 760.967 334.564C759.767 325.364 742.467 311.731 733.967 306.064C737.967 292.064 708.467 284.064 705.967 282.064C703.467 280.064 642.967 279.564 613.967 282.064C584.967 284.564 558.967 260.564 545.967 251.564C540.947 248.089 534.211 246.104 526.855 245.064M482.967 246.677C485.717 245.877 488.54 245.323 491.467 245.064C501.902 244.144 515.162 243.411 526.855 245.064M482.967 246.677C476.134 249.64 463.567 258.364 467.967 269.564C473.467 283.564 481.967 282.564 494.967 287.564C507.967 292.564 514.467 289.064 526.967 284.064C536.967 280.064 543.8 272.731 545.967 269.564C547.726 263.564 546.365 250.264 526.855 245.064M594.989 336.564C577.54 354.939 571.343 382.093 566.467 393.064C560.467 406.564 533.467 436.564 517.467 436.564C501.467 436.564 473.467 437.064 461.967 411.564C453.842 393.548 431.34 356.007 417.467 333.588C415.632 330.622 413.947 327.921 412.467 325.564M608.967 325.564C603.629 328.561 599.01 332.33 594.989 336.564M417.467 333.588C430.3 344.247 465.667 361.064 504.467 343.064M504.467 343.064C523.148 349.064 567.407 356.164 594.989 336.564M504.467 343.064C503.967 339.064 503.867 326.364 507.467 307.564" stroke="black" stroke-width="4" stroke-linecap="round"/>
<path d="M508.467 388.064C510.634 390.731 516.967 395.064 524.967 391.064C534.967 386.064 540.467 364.064 540.967 352.564C521.367 354.164 509.8 347.898 506.467 344.564C508.067 350.564 508.467 376.064 508.467 388.064Z" fill="#E8E9E8"/>
<path d="M474.467 352.564C475.3 358.064 477.267 369.464 478.467 371.064C479.967 373.064 483.967 389.064 494.467 391.064C502.867 392.664 507.3 389.731 508.467 388.064C508.467 376.064 508.067 350.564 506.467 344.564C493.267 351.764 479.634 352.898 474.467 352.564Z" fill="#E8E9E8"/>
<path d="M506.467 344.564C509.8 347.898 521.367 354.164 540.967 352.564C540.467 364.064 534.967 386.064 524.967 391.064C516.967 395.064 510.634 390.731 508.467 388.064C507.3 389.731 502.867 392.664 494.467 391.064C483.967 389.064 479.967 373.064 478.467 371.064C477.267 369.464 475.3 358.064 474.467 352.564C479.634 352.898 493.267 351.764 506.467 344.564ZM508.467 388.064C508.467 376.064 508.067 350.564 506.467 344.564" stroke="black" stroke-width="4" stroke-linecap="round"/>
<path d="M571.967 269.064C565.134 254.398 552.967 219.064 558.967 195.064C566.467 165.064 564.967 166.064 574.467 155.564C583.967 145.064 609.467 145.564 616.967 150.564C624.467 155.564 655.467 175.064 660.967 201.064C666.467 227.064 685.467 259.064 660.967 282.064L612.467 284.564C603.3 282.898 582.367 277.464 571.967 269.064Z" fill="#EAE1D1" stroke="black" stroke-width="4" stroke-linecap="round"/>
<path d="M454.684 268.502C461.518 253.835 473.684 218.502 467.684 194.502C460.184 164.502 461.684 165.502 452.184 155.002C442.684 144.502 417.184 145.002 409.684 150.002C402.184 155.002 371.184 174.502 365.684 200.502C360.184 226.502 341.184 258.502 365.684 281.502L414.184 284.002C423.351 282.335 444.284 276.902 454.684 268.502Z" fill="#EAE1D1" stroke="black" stroke-width="4" stroke-linecap="round"/>
<circle cx="609.467" cy="235.564" r="41" fill="#E7EBEC" stroke="black" stroke-width="2"/>
<circle cx="601.967" cy="238.064" r="26.5" fill="#3567A2" stroke="black" stroke-width="2"/>
<circle cx="596.967" cy="241.064" r="15.5" fill="#27110F" stroke="#27110F" stroke-width="2"/>
<circle cx="596.467" cy="232.564" r="6" fill="white" stroke="#27110F" stroke-width="2"/>
<circle cx="42" cy="42" r="41" transform="matrix(-1 0 0 1 460.467 186.564)" fill="#E7EBEC" stroke="black" stroke-width="2"/>
<circle cx="27.5" cy="27.5" r="26.5" transform="matrix(-1 0 0 1 453.467 203.564)" fill="#3567A2" stroke="black" stroke-width="2"/>
<circle cx="16.5" cy="16.5" r="15.5" transform="matrix(-1 0 0 1 447.467 217.564)" fill="#27110F" stroke="#27110F" stroke-width="2"/>
<circle cx="7" cy="7" r="6" transform="matrix(-1 0 0 1 438.467 218.564)" fill="white" stroke="#27110F" stroke-width="2"/>
<path d="M293.598 827.564C336.098 775.564 578.098 746.064 721.098 840.064C715.498 815.264 709.431 782.064 707.098 768.564C693.098 697.064 685.598 695.064 684.098 659.064C682.898 630.264 708.265 619.064 721.098 617.064C731.598 616.564 763.198 609.264 805.598 584.064C858.598 552.564 863.598 558.564 869.098 555.064C873.498 552.264 872.265 547.898 871.098 546.064C846.598 532.564 851.598 484.564 850.598 471.064C849.598 457.564 837.098 471.064 793.598 476.564C750.098 482.064 767.598 483.064 689.598 491.564C627.198 498.364 605.598 480.731 602.598 471.064C522.998 488.664 443.098 482.064 413.098 476.564C397.898 488.164 384.098 491.398 379.098 491.564C312.298 491.164 196.931 471.731 147.598 462.064C168.098 510.064 133.098 536.564 133.098 541.064C164.598 546.564 181.598 569.064 233.598 588.064C285.598 607.064 274.598 613.064 311.098 619.564C347.598 626.064 330.098 683.564 316.598 716.564C305.798 742.964 296.765 801.564 293.598 827.564Z" fill="#195087" stroke="black" stroke-width="4"/>
<path d="M525.598 690.551V696.551C527.098 695.551 530.598 694.151 532.598 696.551C534.598 698.951 533.431 723.884 532.598 736.051C532.598 739.551 534.498 746.851 542.098 748.051C549.698 749.251 563.931 748.551 570.098 748.051C573.265 747.051 579.498 742.751 579.098 733.551C578.698 724.351 578.931 708.384 579.098 701.551L585.098 699.551C586.098 698.051 587.098 694.851 583.098 694.051C578.098 693.051 563.098 690.551 564.598 696.551C565.765 696.218 568.498 696.151 570.098 698.551C572.098 701.551 570.098 729.551 570.098 730.551C570.098 731.551 570.598 743.051 563.598 742.051C556.598 741.051 548.098 747.051 544.598 737.551C541.098 728.051 540.598 700.551 543.598 698.551C546.598 696.551 549.598 698.051 549.598 695.551C549.598 693.051 550.598 690.551 547.598 690.551H525.598Z" fill="white"/>
<path d="M495.598 721.051C495.098 719.551 484.098 715.551 483.598 706.551C483.098 697.551 490.598 689.051 495.598 688.051C500.598 687.051 506.598 689.051 510.098 690.551C513.598 692.051 516.598 689.551 516.598 688.051C516.598 686.551 522.598 695.551 519.598 705.551L514.598 704.551C513.931 700.884 510.898 693.951 504.098 695.551C495.598 697.551 493.098 697.051 496.598 705.551C500.098 714.051 509.598 710.051 518.598 717.551C525.798 723.551 522.265 735.717 519.598 741.051C517.098 744.384 509.498 750.451 499.098 748.051C495.931 746.551 489.598 743.851 489.598 745.051C489.598 746.551 485.098 753.051 482.598 745.051C480.598 738.651 482.431 731.051 483.598 728.051H488.098C487.265 730.384 486.598 735.251 490.598 736.051C495.598 737.051 500.34 744.051 511.598 736.051C512.765 733.718 514.098 728.551 510.098 726.551C506.098 724.551 498.765 722.051 495.598 721.051Z" fill="white"/>
<path fill-rule="evenodd" clip-rule="evenodd" d="M429.598 693.051V697.551L435.098 699.551V743.551L429.598 746.551H463.098C467.431 745.051 476.298 740.351 477.098 733.551C478.098 725.051 470.598 717.051 468.098 717.551C469.765 716.051 473.398 712.651 474.598 711.051C476.098 709.051 479.098 694.051 468.098 693.051C459.298 692.251 438.765 692.051 429.598 692.051V693.051ZM447.098 714.051V697.551H459.598C461.265 698.217 464.698 700.551 465.098 704.551C465.498 708.551 460.598 712.551 458.098 714.051H447.098ZM446.098 741.051V722.051C449.598 721.384 457.198 720.251 459.598 721.051C462.598 722.051 466.598 726.551 465.098 733.551C463.898 739.151 459.931 740.884 458.098 741.051H446.098Z" fill="white"/>
<path d="M410.598 700.551L409.098 743.551L402.098 748.051V750.551L427.098 749.551L426.098 745.051L420.598 743.551V699.551L427.098 697.551L425.098 693.051L403.598 695.551V700.551H410.598Z" fill="white"/>
<path d="M547.598 690.551C545.198 690.551 531.931 690.551 525.598 690.551V696.551C527.098 695.551 530.598 694.151 532.598 696.551C534.598 698.951 533.431 723.884 532.598 736.051C532.598 739.551 534.498 746.851 542.098 748.051C549.698 749.251 563.931 748.551 570.098 748.051C573.265 747.051 579.498 742.751 579.098 733.551C578.698 724.351 578.931 708.384 579.098 701.551L585.098 699.551C586.098 698.051 587.098 694.851 583.098 694.051C578.098 693.051 563.098 690.551 564.598 696.551C565.765 696.218 568.498 696.151 570.098 698.551C572.098 701.551 570.098 729.551 570.098 730.551C570.098 731.551 570.598 743.051 563.598 742.051C556.598 741.051 548.098 747.051 544.598 737.551C541.098 728.051 540.598 700.551 543.598 698.551C546.598 696.551 549.598 698.051 549.598 695.551C549.598 693.051 550.598 690.551 547.598 690.551ZM525.598 690.551H547.598M410.598 700.551L409.098 743.551L402.098 748.051V750.551L427.098 749.551L426.098 745.051L420.598 743.551V699.551L427.098 697.551L425.098 693.051L403.598 695.551V700.551H410.598ZM429.598 693.051V697.551L435.098 699.551V743.551L429.598 746.551H463.098C467.431 745.051 476.298 740.351 477.098 733.551C478.098 725.051 470.598 717.051 468.098 717.551C469.765 716.051 473.398 712.651 474.598 711.051C476.098 709.051 479.098 694.051 468.098 693.051C459.298 692.251 438.765 692.051 429.598 692.051V693.051ZM447.098 697.551V714.051H458.098C460.598 712.551 465.498 708.551 465.098 704.551C464.698 700.551 461.265 698.217 459.598 697.551H447.098ZM446.098 722.051V741.051H458.098C459.931 740.884 463.898 739.151 465.098 733.551C466.598 726.551 462.598 722.051 459.598 721.051C457.198 720.251 449.598 721.384 446.098 722.051ZM495.598 721.051C495.098 719.551 484.098 715.551 483.598 706.551C483.098 697.551 490.598 689.051 495.598 688.051C500.598 687.051 506.598 689.051 510.098 690.551C513.598 692.051 516.598 689.551 516.598 688.051C516.598 686.551 522.598 695.551 519.598 705.551L514.598 704.551C513.931 700.884 510.898 693.951 504.098 695.551C495.598 697.551 493.098 697.051 496.598 705.551C500.098 714.051 509.598 710.051 518.598 717.551C525.798 723.551 522.265 735.717 519.598 741.051C517.098 744.384 509.498 750.451 499.098 748.051C495.931 746.551 489.598 743.851 489.598 745.051C489.598 746.551 485.098 753.051 482.598 745.051C480.598 738.651 482.431 731.051 483.598 728.051H488.098C487.265 730.384 486.598 735.251 490.598 736.051C495.598 737.051 500.34 744.051 511.598 736.051C512.765 733.718 514.098 728.551 510.098 726.551C506.098 724.551 498.765 722.051 495.598 721.051Z" stroke="black" stroke-width="2" stroke-linecap="round"/>
<path fill-rule="evenodd" clip-rule="evenodd" d="M400.598 645.551C394.765 637.384 385.998 616.451 397.598 598.051C409.198 579.651 426.431 568.051 433.598 564.551C445.931 559.218 480.098 549.251 518.098 552.051C565.598 555.551 610.598 590.551 607.598 614.051C604.598 637.551 600.098 663.051 536.598 668.051C473.098 673.051 454.098 670.051 425.598 661.051C420.598 658.995 408.598 653.018 400.598 645.551ZM403.598 596.051C391.198 617.251 400.098 635.884 406.098 642.551C406.598 643.551 411.698 647.551 428.098 655.551C444.498 663.551 474.598 664.884 487.598 664.551C508.598 664.718 554.098 663.551 568.098 657.551C582.098 651.551 590.265 645.051 592.598 642.551C615.598 608.551 598.598 599.551 584.598 584.051C573.398 571.651 550.265 563.884 540.098 561.551C537.765 561.384 525.398 560.551 494.598 558.551C456.098 556.051 419.098 569.551 403.598 596.051Z" fill="white"/>
<path d="M397.098 646.051L403.598 652.051L364.098 665.551L363.098 656.551L397.098 646.051Z" fill="white"/>
<path d="M391.598 639.051L364.098 650.551L361.598 641.051L388.598 630.551L391.598 639.051Z" fill="white"/>
<path d="M388.598 624.551L368.098 630.551C367.098 627.884 365.298 622.651 366.098 623.051C366.898 623.451 381.431 618.551 388.598 616.051V624.551Z" fill="white"/>
<path d="M390.598 609.551L372.098 616.051L368.098 609.551L391.598 601.051L390.598 609.551Z" fill="white"/>
<path d="M400.598 589.551L373.098 599.551V593.551L400.598 583.051V589.551Z" fill="white"/>
<path d="M610.098 617.051L608.598 624.051L641.598 633.051V625.051L610.098 617.051Z" fill="white"/>
<path d="M608.598 632.051L604.598 637.551L641.598 649.051L643.598 639.051L608.598 632.051Z" fill="white"/>
<path d="M600.598 645.551C598.598 647.051 594.598 650.251 594.598 651.051C594.598 651.851 625.265 661.384 640.598 666.051L642.598 654.551L600.598 645.551Z" fill="white"/>
<path d="M607.598 601.551L608.598 609.551L639.098 618.051L638.098 609.551L607.598 601.551Z" fill="white"/>
<path d="M594.598 584.051L602.598 595.051L636.598 603.051V596.051L594.598 584.051Z" fill="white"/>
<path d="M494.598 567.051C499.598 570.884 506.598 579.651 494.598 584.051C482.598 588.451 480.598 601.551 481.098 607.551C482.098 610.051 486.498 615.451 496.098 617.051V628.051C496.098 634.551 500.598 639.551 505.598 637.551C510.598 635.551 515.098 630.551 520.098 620.051C523.912 612.042 521.968 609.76 520.334 609.565C520.252 609.562 520.173 609.558 520.098 609.551C520.176 609.551 520.255 609.555 520.334 609.565C522.253 609.622 525.947 608.421 527.098 603.051C528.598 596.051 528.098 592.051 531.098 596.051C534.098 600.051 527.098 608.551 533.598 609.551C540.098 610.551 540.098 602.551 545.098 606.051C550.098 609.551 551.598 614.551 555.098 611.051C558.598 607.551 566.098 607.051 561.598 601.051C567.098 595.718 574.798 583.151 561.598 575.551C548.398 567.951 529.431 566.718 521.598 567.051C520.598 565.884 518.198 563.751 516.598 564.551C514.598 565.551 507.598 562.551 505.598 567.051C503.598 571.551 497.098 562.051 494.598 567.051Z" fill="white"/>
<path d="M418.098 586.551C419.598 591.884 424.398 601.651 431.598 598.051C440.598 593.551 445.598 593.551 441.598 601.551C437.598 609.551 430.598 610.051 435.098 616.051C439.598 622.051 443.098 622.551 450.098 616.051C457.098 609.551 463.098 618.551 461.598 624.551C460.098 630.551 447.598 636.551 452.598 646.051C457.598 655.551 500.598 652.551 527.098 648.551C532.765 648.551 544.898 649.251 548.098 652.051C552.098 655.551 573.098 648.551 576.098 642.551C573.598 642.551 555.098 648.551 558.598 637.551C562.098 626.551 564.098 623.551 556.098 621.551C548.098 619.551 565.098 615.551 569.598 623.051C573.198 629.051 573.431 619.551 573.098 614.051C574.931 612.551 579.798 611.651 584.598 620.051C590.598 630.551 580.098 625.551 585.598 635.551C591.098 645.551 601.098 607.051 591.098 601.051C589.931 598.884 588.598 595.251 592.598 598.051C597.598 601.551 604.098 617.551 600.598 623.051C597.098 628.551 595.598 645.051 571.098 652.051C546.598 659.051 473.598 667.051 443.598 654.051C413.598 641.051 410.496 651.551 403.598 625.551C398.08 604.751 410.965 590.884 418.098 586.551Z" fill="white"/>
<path d="M443.598 577.551C443.265 581.218 444.598 588.451 452.598 588.051C462.598 587.551 466.598 579.551 476.598 577.551C484.598 575.951 484.265 569.884 483.098 567.051C471.931 568.718 448.398 573.151 443.598 577.551Z" fill="white"/>
<path d="M496.098 628.051C496.098 622.851 496.098 618.551 496.098 617.051C486.498 615.451 482.098 610.051 481.098 607.551C480.598 601.551 482.598 588.451 494.598 584.051C506.598 579.651 499.598 570.884 494.598 567.051C497.098 562.051 503.598 571.551 505.598 567.051C507.598 562.551 514.598 565.551 516.598 564.551C518.198 563.751 520.598 565.884 521.598 567.051C529.431 566.718 548.398 567.951 561.598 575.551C574.798 583.151 567.098 595.718 561.598 601.051C566.098 607.051 558.598 607.551 555.098 611.051C551.598 614.551 550.098 609.551 545.098 606.051C540.098 602.551 540.098 610.551 533.598 609.551C527.098 608.551 534.098 600.051 531.098 596.051C528.098 592.051 528.598 596.051 527.098 603.051C525.947 608.421 522.253 609.622 520.334 609.565M496.098 617.051V628.051M496.098 628.051C496.098 634.551 500.598 639.551 505.598 637.551C510.598 635.551 515.098 630.551 520.098 620.051C523.912 612.042 521.968 609.76 520.334 609.565M520.334 609.565C520.252 609.562 520.173 609.558 520.098 609.551C520.176 609.551 520.255 609.555 520.334 609.565ZM397.098 646.051L403.598 652.051L364.098 665.551L363.098 656.551L397.098 646.051ZM391.598 639.051L364.098 650.551L361.598 641.051L388.598 630.551L391.598 639.051ZM388.598 624.551L368.098 630.551C367.098 627.884 365.298 622.651 366.098 623.051C366.898 623.451 381.431 618.551 388.598 616.051V624.551ZM390.598 609.551L372.098 616.051L368.098 609.551L391.598 601.051L390.598 609.551ZM400.598 589.551L373.098 599.551V593.551L400.598 583.051V589.551ZM594.598 584.051L602.598 595.051L636.598 603.051V596.051L594.598 584.051ZM607.598 601.551L608.598 609.551L639.098 618.051L638.098 609.551L607.598 601.551ZM610.098 617.051L608.598 624.051L641.598 633.051V625.051L610.098 617.051ZM608.598 632.051L604.598 637.551L641.598 649.051L643.598 639.051L608.598 632.051ZM600.598 645.551C598.598 647.051 594.598 650.251 594.598 651.051C594.598 651.851 625.265 661.384 640.598 666.051L642.598 654.551L600.598 645.551ZM400.598 645.551C394.765 637.384 385.998 616.451 397.598 598.051C409.198 579.651 426.431 568.051 433.598 564.551C445.931 559.218 480.098 549.251 518.098 552.051C565.598 555.551 610.598 590.551 607.598 614.051C604.598 637.551 600.098 663.051 536.598 668.051C473.098 673.051 454.098 670.051 425.598 661.051C420.598 658.995 408.598 653.018 400.598 645.551ZM406.098 642.551C400.098 635.884 391.198 617.251 403.598 596.051C419.098 569.551 456.098 556.051 494.598 558.551C525.398 560.551 537.765 561.384 540.098 561.551C550.265 563.884 573.398 571.651 584.598 584.051C598.598 599.551 615.598 608.551 592.598 642.551C590.265 645.051 582.098 651.551 568.098 657.551C554.098 663.551 508.598 664.718 487.598 664.551C474.598 664.884 444.498 663.551 428.098 655.551C411.698 647.551 406.598 643.551 406.098 642.551ZM443.598 577.551C443.265 581.218 444.598 588.451 452.598 588.051C462.598 587.551 466.598 579.551 476.598 577.551C484.598 575.951 484.265 569.884 483.098 567.051C471.931 568.718 448.398 573.151 443.598 577.551ZM418.098 586.551C419.598 591.884 424.398 601.651 431.598 598.051C440.598 593.551 445.598 593.551 441.598 601.551C437.598 609.551 430.598 610.051 435.098 616.051C439.598 622.051 443.098 622.551 450.098 616.051C457.098 609.551 463.098 618.551 461.598 624.551C460.098 630.551 447.598 636.551 452.598 646.051C457.598 655.551 500.598 652.551 527.098 648.551C532.765 648.551 544.898 649.251 548.098 652.051C552.098 655.551 573.098 648.551 576.098 642.551C573.598 642.551 555.098 648.551 558.598 637.551C562.098 626.551 564.098 623.551 556.098 621.551C548.098 619.551 565.098 615.551 569.598 623.051C573.198 629.051 573.431 619.551 573.098 614.051C574.931 612.551 579.798 611.651 584.598 620.051C590.598 630.551 580.098 625.551 585.598 635.551C591.098 645.551 601.098 607.051 591.098 601.051C589.931 598.884 588.598 595.251 592.598 598.051C597.598 601.551 604.098 617.551 600.598 623.051C597.098 628.551 595.598 645.051 571.098 652.051C546.598 659.051 473.598 667.051 443.598 654.051C413.598 641.051 410.496 651.551 403.598 625.551C398.08 604.751 410.965 590.884 418.098 586.551Z" stroke="black" stroke-width="2" stroke-linecap="round"/>
</svg>
